<?xml version="1.0" encoding="UTF-8" standalone="no"?>
<!DOCTYPE svg PUBLIC "-//W3C//DTD SVG 1.1//EN"
 "http://www.w3.org/Graphics/SVG/1.1/DTD/svg11.dtd">
<!-- Generated by graphviz version 2.38.0 (20140413.2041)
 -->
<!-- Title: models_diagram Pages: 1 -->
<svg width="918pt" height="115pt"
 viewBox="0.00 0.00 918.34 115.00" xmlns="http://www.w3.org/2000/svg" xmlns:xlink="http://www.w3.org/1999/xlink">
<g id="graph0" class="graph" transform="scale(1 1) rotate(0) translate(4 111)">
<title>models_diagram</title>
<polygon fill="none" stroke="none" points="-4,4 -4,-111 914.343,-111 914.343,4 -4,4"/>
<!-- _diagram_info -->
<g id="node1" class="node"><title>_diagram_info</title>
<text text-anchor="start" x="8" y="-78.1" font-family="Times,serif" font-size="13.00">Models diagram</text>
<text text-anchor="start" x="8" y="-64.1" font-family="Times,serif" font-size="13.00">Date: Aug 11 2016 &#45; 19:59</text>
<text text-anchor="start" x="8" y="-50.1" font-family="Times,serif" font-size="13.00">Migration version: 20160812005104</text>
<text text-anchor="start" x="8" y="-36.1" font-family="Times,serif" font-size="13.00">Generated by RailRoady 1.5.1</text>
<text text-anchor="start" x="8" y="-22.1" font-family="Times,serif" font-size="13.00">http://railroady.prestonlee.com</text>
</g>
<!-- Comentario -->
<g id="node2" class="node"><title>Comentario</title>
<path fill="none" stroke="black" d="M244,-0.5C244,-0.5 464,-0.5 464,-0.5 470,-0.5 476,-6.5 476,-12.5 476,-12.5 476,-94.5 476,-94.5 476,-100.5 470,-106.5 464,-106.5 464,-106.5 244,-106.5 244,-106.5 238,-106.5 232,-100.5 232,-94.5 232,-94.5 232,-12.5 232,-12.5 232,-6.5 238,-0.5 244,-0.5"/>
<text text-anchor="middle" x="354" y="-91.3" font-family="Times,serif" font-size="14.00">Comentario</text>
<polyline fill="none" stroke="black" points="232,-83.5 476,-83.5 "/>
<text text-anchor="start" x="240" y="-68.3" font-family="Times,serif" font-size="14.00">id :integer</text>
<text text-anchor="start" x="240" y="-53.3" font-family="Times,serif" font-size="14.00">cita :character varying</text>
<text text-anchor="start" x="240" y="-38.3" font-family="Times,serif" font-size="14.00">created_at :timestamp without time zone</text>
<text text-anchor="start" x="240" y="-23.3" font-family="Times,serif" font-size="14.00">updated_at :timestamp without time zone</text>
<text text-anchor="start" x="240" y="-8.3" font-family="Times,serif" font-size="14.00">post_id :integer</text>
</g>
<!-- Post -->
<g id="node3" class="node"><title>Post</title>
<path fill="none" stroke="black" d="M506,-8C506,-8 726,-8 726,-8 732,-8 738,-14 738,-20 738,-20 738,-87 738,-87 738,-93 732,-99 726,-99 726,-99 506,-99 506,-99 500,-99 494,-93 494,-87 494,-87 494,-20 494,-20 494,-14 500,-8 506,-8"/>
<text text-anchor="middle" x="616" y="-83.8" font-family="Times,serif" font-size="14.00">Post</text>
<polyline fill="none" stroke="black" points="494,-76 738,-76 "/>
<text text-anchor="start" x="502" y="-60.8" font-family="Times,serif" font-size="14.00">id :integer</text>
<text text-anchor="start" x="502" y="-45.8" font-family="Times,serif" font-size="14.00">content :character varying</text>
<text text-anchor="start" x="502" y="-30.8" font-family="Times,serif" font-size="14.00">created_at :timestamp without time zone</text>
<text text-anchor="start" x="502" y="-15.8" font-family="Times,serif" font-size="14.00">updated_at :timestamp without time zone</text>
</g>
<!-- ApplicationRecord -->
<g id="node4" class="node"><title>ApplicationRecord</title>
<ellipse fill="none" stroke="black" cx="833" cy="-53.5" rx="77.1866" ry="18"/>
<text text-anchor="middle" x="833" y="-49.8" font-family="Times,serif" font-size="14.00">ApplicationRecord</text>
</g>
</g>
</svg>
